{
	"asset":{
		"generator":"Khronos glTF Blender I/O v4.5.47",
		"version":"2.0"
	},
	"scene":0,
	"scenes":[
		{
			"name":"Scene",
			"nodes":[
				0
			]
		}
	],
	"nodes":[
		{
			"mesh":0,
			"name":"polySurface40",
			"rotation":[
				0.7071068286895752,
				0,
				0,
				0.7071068286895752
			],
			"scale":[
				0.009999999776482582,
				0.009999999776482582,
				0.009999999776482582
			]
		}
	],
	"materials":[
		{
			"doubleSided":true,
			"name":"Aretes",
			"pbrMetallicRoughness":{
				"baseColorTexture":{
					"index":0
				},
				"metallicFactor":0,
				"roughnessFactor":0.5527864098548889
			}
		},
		{
			"doubleSided":true,
			"name":"Jollas",
			"pbrMetallicRoughness":{
				"baseColorTexture":{
					"index":1
				},
				"metallicFactor":0,
				"roughnessFactor":0.5527864098548889
			}
		},
		{
			"doubleSided":true,
			"name":"Cinturon",
			"pbrMetallicRoughness":{
				"baseColorTexture":{
					"index":2
				},
				"metallicFactor":0,
				"roughnessFactor":0.5527864098548889
			}
		},
		{
			"alphaMode":"BLEND",
			"doubleSided":true,
			"name":"Pelo",
			"pbrMetallicRoughness":{
				"baseColorFactor":[
					0,
					0,
					0,
					1
				],
				"baseColorTexture":{
					"index":3
				},
				"metallicFactor":0,
				"roughnessFactor":0.5527864098548889
			}
		},
		{
			"doubleSided":true,
			"name":"Ojo",
			"pbrMetallicRoughness":{
				"baseColorTexture":{
					"index":4
				},
				"metallicFactor":0,
				"roughnessFactor":0.5527864098548889
			}
		},
		{
			"doubleSided":true,
			"name":"Corona",
			"pbrMetallicRoughness":{
				"baseColorTexture":{
					"index":5
				},
				"metallicFactor":0,
				"roughnessFactor":0.5527864098548889
			}
		},
		{
			"doubleSided":true,
			"name":"Ropa",
			"pbrMetallicRoughness":{
				"baseColorTexture":{
					"index":6
				},
				"metallicFactor":0,
				"roughnessFactor":0.5527864098548889
			}
		},
		{
			"doubleSided":true,
			"name":"Piel",
			"pbrMetallicRoughness":{
				"baseColorTexture":{
					"index":7
				},
				"metallicFactor":0,
				"roughnessFactor":0.5527864098548889
			}
		},
		{
			"doubleSided":true,
			"name":"openPBR_shader1",
			"pbrMetallicRoughness":{
				"metallicFactor":0,
				"roughnessFactor":0.5527864098548889
			}
		}
	],
	"meshes":[
		{
			"name":"Mesh",
			"primitives":[
				{
					"attributes":{
						"POSITION":0,
						"NORMAL":1,
						"TEXCOORD_0":2,
						"COLOR_0":3,
						"COLOR_1":4,
						"COLOR_2":5
					},
					"indices":6,
					"material":0
				},
				{
					"attributes":{
						"POSITION":7,
						"NORMAL":8,
						"TEXCOORD_0":9,
						"COLOR_0":10,
						"COLOR_1":11,
						"COLOR_2":12
					},
					"indices":13,
					"material":1
				},
				{
					"attributes":{
						"POSITION":14,
						"NORMAL":15,
						"TEXCOORD_0":16,
						"COLOR_0":17,
						"COLOR_1":18,
						"COLOR_2":19
					},
					"indices":20,
					"material":2
				},
				{
					"attributes":{
						"POSITION":21,
						"NORMAL":22,
						"TEXCOORD_0":23,
						"COLOR_0":24,
						"COLOR_1":25,
						"COLOR_2":26
					},
					"indices":27,
					"material":3
				},
				{
					"attributes":{
						"POSITION":28,
						"NORMAL":29,
						"TEXCOORD_0":30,
						"COLOR_0":31,
						"COLOR_1":32,
						"COLOR_2":33
					},
					"indices":34,
					"material":4
				},
				{
					"attributes":{
						"POSITION":35,
						"NORMAL":36,
						"TEXCOORD_0":37,
						"COLOR_0":38,
						"COLOR_1":39,
						"COLOR_2":40
					},
					"indices":41,
					"material":5
				},
				{
					"attributes":{
						"POSITION":42,
						"NORMAL":43,
						"TEXCOORD_0":44,
						"COLOR_0":45,
						"COLOR_1":46,
						"COLOR_2":47
					},
					"indices":48,
					"material":6
				},
				{
					"attributes":{
						"POSITION":49,
						"NORMAL":50,
						"TEXCOORD_0":51,
						"COLOR_0":52,
						"COLOR_1":53,
						"COLOR_2":54
					},
					"indices":55,
					"material":7
				},
				{
					"attributes":{
						"POSITION":56,
						"NORMAL":57,
						"TEXCOORD_0":58,
						"COLOR_0":59,
						"COLOR_1":60,
						"COLOR_2":61
					},
					"indices":62,
					"material":8
				}
			]
		}
	],
	"textures":[
		{
			"sampler":0,
			"source":0
		},
		{
			"sampler":0,
			"source":1
		},
		{
			"sampler":0,
			"source":2
		},
		{
			"sampler":0,
			"source":3
		},
		{
			"sampler":0,
			"source":4
		},
		{
			"sampler":0,
			"source":5
		},
		{
			"sampler":0,
			"source":6
		},
		{
			"sampler":0,
			"source":7
		}
	],
	"images":[
		{
			"mimeType":"image/png",
			"name":"Aretes1_Base_color_1003",
			"uri":"Aretes1_Base_color_1003.png"
		},
		{
			"mimeType":"image/png",
			"name":"Jollas_Ac1_Base_color_1022",
			"uri":"Jollas_Ac1_Base_color_1022.png"
		},
		{
			"mimeType":"image/png",
			"name":"cinturon1_Base_color_1002",
			"uri":"cinturon1_Base_color_1002.png"
		},
		{
			"mimeType":"image/png",
			"name":"IMG_20260527_105200.jpg",
			"uri":"IMG_20260527_105200.jpg.png"
		},
		{
			"mimeType":"image/png",
			"name":"Ojos2_Base_color_1012",
			"uri":"Ojos2_Base_color_1012.png"
		},
		{
			"mimeType":"image/png",
			"name":"Corona1_Base_color_1013",
			"uri":"Corona1_Base_color_1013.png"
		},
		{
			"mimeType":"image/png",
			"name":"Ropa2_Base_color_1011",
			"uri":"Ropa2_Base_color_1011.png"
		},
		{
			"mimeType":"image/png",
			"name":"Skin1_Base_color_1001",
			"uri":"Skin1_Base_color_1001.png"
		}
	],
	"accessors":[
		{
			"bufferView":0,
			"componentType":5126,
			"count":3370,
			"max":[
				1.055501937866211,
				1.2465019226074219,
				-15.81390380859375
			],
			"min":[
				-0.8517086505889893,
				-0.2238280028104782,
				-17.17902183532715
			],
			"type":"VEC3"
		},
		{
			"bufferView":1,
			"componentType":5126,
			"count":3370,
			"type":"VEC3"
		},
		{
			"bufferView":2,
			"componentType":5126,
			"count":3370,
			"type":"VEC2"
		},
		{
			"bufferView":3,
			"componentType":5121,
			"count":3370,
			"normalized":true,
			"type":"VEC4"
		},
		{
			"bufferView":4,
			"componentType":5123,
			"count":3370,
			"normalized":true,
			"type":"VEC4"
		},
		{
			"bufferView":5,
			"componentType":5123,
			"count":3370,
			"normalized":true,
			"type":"VEC4"
		},
		{
			"bufferView":6,
			"componentType":5123,
			"count":14952,
			"type":"SCALAR"
		},
		{
			"bufferView":7,
			"componentType":5126,
			"count":2900,
			"max":[
				2.5423266887664795,
				2.308661937713623,
				-12.571920394897461
			],
			"min":[
				-2.5291848182678223,
				0.3772517740726471,
				-14.294429779052734
			],
			"type":"VEC3"
		},
		{
			"bufferView":8,
			"componentType":5126,
			"count":2900,
			"type":"VEC3"
		},
		{
			"bufferView":9,
			"componentType":5126,
			"count":2900,
			"type":"VEC2"
		},
		{
			"bufferView":10,
			"componentType":5121,
			"count":2900,
			"normalized":true,
			"type":"VEC4"
		},
		{
			"bufferView":11,
			"componentType":5123,
			"count":2900,
			"normalized":true,
			"type":"VEC4"
		},
		{
			"bufferView":12,
			"componentType":5123,
			"count":2900,
			"normalized":true,
			"type":"VEC4"
		},
		{
			"bufferView":13,
			"componentType":5123,
			"count":12672,
			"type":"SCALAR"
		},
		{
			"bufferView":14,
			"componentType":5126,
			"count":525,
			"max":[
				1.6182668209075928,
				2.010468006134033,
				-8.144807815551758
			],
			"min":[
				-1.6326197385787964,
				-1.0949047803878784,
				-11.512863159179688
			],
			"type":"VEC3"
		},
		{
			"bufferView":15,
			"componentType":5126,
			"count":525,
			"type":"VEC3"
		},
		{
			"bufferView":16,
			"componentType":5126,
			"count":525,
			"type":"VEC2"
		},
		{
			"bufferView":17,
			"componentType":5121,
			"count":525,
			"normalized":true,
			"type":"VEC4"
		},
		{
			"bufferView":18,
			"componentType":5123,
			"count":525,
			"normalized":true,
			"type":"VEC4"
		},
		{
			"bufferView":19,
			"componentType":5123,
			"count":525,
			"normalized":true,
			"type":"VEC4"
		},
		{
			"bufferView":20,
			"componentType":5123,
			"count":2280,
			"type":"SCALAR"
		},
		{
			"bufferView":21,
			"componentType":5126,
			"count":1010,
			"max":[
				1.7978485822677612,
				1.3423863649368286,
				-14.001668930053711
			],
			"min":[
				-1.9291244745254517,
				-1.8361514806747437,
				-18.22780990600586
			],
			"type":"VEC3"
		},
		{
			"bufferView":22,
			"componentType":5126,
			"count":1010,
			"type":"VEC3"
		},
		{
			"bufferView":23,
			"componentType":5126,
			"count":1010,
			"type":"VEC2"
		},
		{
			"bufferView":24,
			"componentType":5121,
			"count":1010,
			"normalized":true,
			"type":"VEC4"
		},
		{
			"bufferView":25,
			"componentType":5123,
			"count":1010,
			"normalized":true,
			"type":"VEC4"
		},
		{
			"bufferView":26,
			"componentType":5123,
			"count":1010,
			"normalized":true,
			"type":"VEC4"
		},
		{
			"bufferView":27,
			"componentType":5123,
			"count":4476,
			"type":"SCALAR"
		},
		{
			"bufferView":28,
			"componentType":5126,
			"count":402,
			"max":[
				0.855462372303009,
				1.1955958604812622,
				-16.589569091796875
			],
			"min":[
				-0.2861761152744293,
				0.6670185327529907,
				-17.176300048828125
			],
			"type":"VEC3"
		},
		{
			"bufferView":29,
			"componentType":5126,
			"count":402,
			"type":"VEC3"
		},
		{
			"bufferView":30,
			"componentType":5126,
			"count":402,
			"type":"VEC2"
		},
		{
			"bufferView":31,
			"componentType":5121,
			"count":402,
			"normalized":true,
			"type":"VEC4"
		},
		{
			"bufferView":32,
			"componentType":5123,
			"count":402,
			"normalized":true,
			"type":"VEC4"
		},
		{
			"bufferView":33,
			"componentType":5123,
			"count":402,
			"normalized":true,
			"type":"VEC4"
		},
		{
			"bufferView":34,
			"componentType":5123,
			"count":2280,
			"type":"SCALAR"
		},
		{
			"bufferView":35,
			"componentType":5126,
			"count":2627,
			"max":[
				1.03524911403656,
				1.3790135383605957,
				-17.1851806640625
			],
			"min":[
				-0.7309677004814148,
				-0.6799508929252625,
				-18.933143615722656
			],
			"type":"VEC3"
		},
		{
			"bufferView":36,
			"componentType":5126,
			"count":2627,
			"type":"VEC3"
		},
		{
			"bufferView":37,
			"componentType":5126,
			"count":2627,
			"type":"VEC2"
		},
		{
			"bufferView":38,
			"componentType":5121,
			"count":2627,
			"normalized":true,
			"type":"VEC4"
		},
		{
			"bufferView":39,
			"componentType":5123,
			"count":2627,
			"normalized":true,
			"type":"VEC4"
		},
		{
			"bufferView":40,
			"componentType":5123,
			"count":2627,
			"normalized":true,
			"type":"VEC4"
		},
		{
			"bufferView":41,
			"componentType":5123,
			"count":6324,
			"type":"SCALAR"
		},
		{
			"bufferView":42,
			"componentType":5126,
			"count":2736,
			"max":[
				2.8780558109283447,
				1.707622766494751,
				-4.752067565917969
			],
			"min":[
				-2.6864326000213623,
				-1.6364692449569702,
				-15.587563514709473
			],
			"type":"VEC3"
		},
		{
			"bufferView":43,
			"componentType":5126,
			"count":2736,
			"type":"VEC3"
		},
		{
			"bufferView":44,
			"componentType":5126,
			"count":2736,
			"type":"VEC2"
		},
		{
			"bufferView":45,
			"componentType":5121,
			"count":2736,
			"normalized":true,
			"type":"VEC4"
		},
		{
			"bufferView":46,
			"componentType":5123,
			"count":2736,
			"normalized":true,
			"type":"VEC4"
		},
		{
			"bufferView":47,
			"componentType":5123,
			"count":2736,
			"normalized":true,
			"type":"VEC4"
		},
		{
			"bufferView":48,
			"componentType":5123,
			"count":14016,
			"type":"SCALAR"
		},
		{
			"bufferView":49,
			"componentType":5126,
			"count":18418,
			"max":[
				2.9520349502563477,
				2.309746026992798,
				0.025595370680093765
			],
			"min":[
				-2.631570816040039,
				-1.5136240720748901,
				-18.023536682128906
			],
			"type":"VEC3"
		},
		{
			"bufferView":50,
			"componentType":5126,
			"count":18418,
			"type":"VEC3"
		},
		{
			"bufferView":51,
			"componentType":5126,
			"count":18418,
			"type":"VEC2"
		},
		{
			"bufferView":52,
			"componentType":5121,
			"count":18418,
			"normalized":true,
			"type":"VEC4"
		},
		{
			"bufferView":53,
			"componentType":5123,
			"count":18418,
			"normalized":true,
			"type":"VEC4"
		},
		{
			"bufferView":54,
			"componentType":5123,
			"count":18418,
			"normalized":true,
			"type":"VEC4"
		},
		{
			"bufferView":55,
			"componentType":5123,
			"count":102324,
			"type":"SCALAR"
		},
		{
			"bufferView":56,
			"componentType":5126,
			"count":546,
			"max":[
				0.7290666699409485,
				1.372141718864441,
				-16.612346649169922
			],
			"min":[
				0.018523667007684708,
				1.206233263015747,
				-16.727252960205078
			],
			"type":"VEC3"
		},
		{
			"bufferView":57,
			"componentType":5126,
			"count":546,
			"type":"VEC3"
		},
		{
			"bufferView":58,
			"componentType":5126,
			"count":546,
			"type":"VEC2"
		},
		{
			"bufferView":59,
			"componentType":5121,
			"count":546,
			"normalized":true,
			"type":"VEC4"
		},
		{
			"bufferView":60,
			"componentType":5123,
			"count":546,
			"normalized":true,
			"type":"VEC4"
		},
		{
			"bufferView":61,
			"componentType":5123,
			"count":546,
			"normalized":true,
			"type":"VEC4"
		},
		{
			"bufferView":62,
			"componentType":5123,
			"count":2640,
			"type":"SCALAR"
		}
	],
	"bufferViews":[
		{
			"buffer":0,
			"byteLength":40440,
			"byteOffset":0,
			"target":34962
		},
		{
			"buffer":0,
			"byteLength":40440,
			"byteOffset":40440,
			"target":34962
		},
		{
			"buffer":0,
			"byteLength":26960,
			"byteOffset":80880,
			"target":34962
		},
		{
			"buffer":0,
			"byteLength":13480,
			"byteOffset":107840,
			"target":34962
		},
		{
			"buffer":0,
			"byteLength":26960,
			"byteOffset":121320,
			"target":34962
		},
		{
			"buffer":0,
			"byteLength":26960,
			"byteOffset":148280,
			"target":34962
		},
		{
			"buffer":0,
			"byteLength":29904,
			"byteOffset":175240,
			"target":34963
		},
		{
			"buffer":0,
			"byteLength":34800,
			"byteOffset":205144,
			"target":34962
		},
		{
			"buffer":0,
			"byteLength":34800,
			"byteOffset":239944,
			"target":34962
		},
		{
			"buffer":0,
			"byteLength":23200,
			"byteOffset":274744,
			"target":34962
		},
		{
			"buffer":0,
			"byteLength":11600,
			"byteOffset":297944,
			"target":34962
		},
		{
			"buffer":0,
			"byteLength":23200,
			"byteOffset":309544,
			"target":34962
		},
		{
			"buffer":0,
			"byteLength":23200,
			"byteOffset":332744,
			"target":34962
		},
		{
			"buffer":0,
			"byteLength":25344,
			"byteOffset":355944,
			"target":34963
		},
		{
			"buffer":0,
			"byteLength":6300,
			"byteOffset":381288,
			"target":34962
		},
		{
			"buffer":0,
			"byteLength":6300,
			"byteOffset":387588,
			"target":34962
		},
		{
			"buffer":0,
			"byteLength":4200,
			"byteOffset":393888,
			"target":34962
		},
		{
			"buffer":0,
			"byteLength":2100,
			"byteOffset":398088,
			"target":34962
		},
		{
			"buffer":0,
			"byteLength":4200,
			"byteOffset":400188,
			"target":34962
		},
		{
			"buffer":0,
			"byteLength":4200,
			"byteOffset":404388,
			"target":34962
		},
		{
			"buffer":0,
			"byteLength":4560,
			"byteOffset":408588,
			"target":34963
		},
		{
			"buffer":0,
			"byteLength":12120,
			"byteOffset":413148,
			"target":34962
		},
		{
			"buffer":0,
			"byteLength":12120,
			"byteOffset":425268,
			"target":34962
		},
		{
			"buffer":0,
			"byteLength":8080,
			"byteOffset":437388,
			"target":34962
		},
		{
			"buffer":0,
			"byteLength":4040,
			"byteOffset":445468,
			"target":34962
		},
		{
			"buffer":0,
			"byteLength":8080,
			"byteOffset":449508,
			"target":34962
		},
		{
			"buffer":0,
			"byteLength":8080,
			"byteOffset":457588,
			"target":34962
		},
		{
			"buffer":0,
			"byteLength":8952,
			"byteOffset":465668,
			"target":34963
		},
		{
			"buffer":0,
			"byteLength":4824,
			"byteOffset":474620,
			"target":34962
		},
		{
			"buffer":0,
			"byteLength":4824,
			"byteOffset":479444,
			"target":34962
		},
		{
			"buffer":0,
			"byteLength":3216,
			"byteOffset":484268,
			"target":34962
		},
		{
			"buffer":0,
			"byteLength":1608,
			"byteOffset":487484,
			"target":34962
		},
		{
			"buffer":0,
			"byteLength":3216,
			"byteOffset":489092,
			"target":34962
		},
		{
			"buffer":0,
			"byteLength":3216,
			"byteOffset":492308,
			"target":34962
		},
		{
			"buffer":0,
			"byteLength":4560,
			"byteOffset":495524,
			"target":34963
		},
		{
			"buffer":0,
			"byteLength":31524,
			"byteOffset":500084,
			"target":34962
		},
		{
			"buffer":0,
			"byteLength":31524,
			"byteOffset":531608,
			"target":34962
		},
		{
			"buffer":0,
			"byteLength":21016,
			"byteOffset":563132,
			"target":34962
		},
		{
			"buffer":0,
			"byteLength":10508,
			"byteOffset":584148,
			"target":34962
		},
		{
			"buffer":0,
			"byteLength":21016,
			"byteOffset":594656,
			"target":34962
		},
		{
			"buffer":0,
			"byteLength":21016,
			"byteOffset":615672,
			"target":34962
		},
		{
			"buffer":0,
			"byteLength":12648,
			"byteOffset":636688,
			"target":34963
		},
		{
			"buffer":0,
			"byteLength":32832,
			"byteOffset":649336,
			"target":34962
		},
		{
			"buffer":0,
			"byteLength":32832,
			"byteOffset":682168,
			"target":34962
		},
		{
			"buffer":0,
			"byteLength":21888,
			"byteOffset":715000,
			"target":34962
		},
		{
			"buffer":0,
			"byteLength":10944,
			"byteOffset":736888,
			"target":34962
		},
		{
			"buffer":0,
			"byteLength":21888,
			"byteOffset":747832,
			"target":34962
		},
		{
			"buffer":0,
			"byteLength":21888,
			"byteOffset":769720,
			"target":34962
		},
		{
			"buffer":0,
			"byteLength":28032,
			"byteOffset":791608,
			"target":34963
		},
		{
			"buffer":0,
			"byteLength":221016,
			"byteOffset":819640,
			"target":34962
		},
		{
			"buffer":0,
			"byteLength":221016,
			"byteOffset":1040656,
			"target":34962
		},
		{
			"buffer":0,
			"byteLength":147344,
			"byteOffset":1261672,
			"target":34962
		},
		{
			"buffer":0,
			"byteLength":73672,
			"byteOffset":1409016,
			"target":34962
		},
		{
			"buffer":0,
			"byteLength":147344,
			"byteOffset":1482688,
			"target":34962
		},
		{
			"buffer":0,
			"byteLength":147344,
			"byteOffset":1630032,
			"target":34962
		},
		{
			"buffer":0,
			"byteLength":204648,
			"byteOffset":1777376,
			"target":34963
		},
		{
			"buffer":0,
			"byteLength":6552,
			"byteOffset":1982024,
			"target":34962
		},
		{
			"buffer":0,
			"byteLength":6552,
			"byteOffset":1988576,
			"target":34962
		},
		{
			"buffer":0,
			"byteLength":4368,
			"byteOffset":1995128,
			"target":34962
		},
		{
			"buffer":0,
			"byteLength":2184,
			"byteOffset":1999496,
			"target":34962
		},
		{
			"buffer":0,
			"byteLength":4368,
			"byteOffset":2001680,
			"target":34962
		},
		{
			"buffer":0,
			"byteLength":4368,
			"byteOffset":2006048,
			"target":34962
		},
		{
			"buffer":0,
			"byteLength":5280,
			"byteOffset":2010416,
			"target":34963
		}
	],
	"samplers":[
		{
			"magFilter":9729,
			"minFilter":9987
		}
	],
	"buffers":[
		{
			"byteLength":2015696,
			"uri":"zipav2.bin"
		}
	]
}
