{
	"asset":{
		"generator":"Khronos glTF Blender I/O v4.5.47",
		"version":"2.0"
	},
	"scene":0,
	"scenes":[
		{
			"name":"Scene",
			"nodes":[
				0
			]
		}
	],
	"nodes":[
		{
			"mesh":0,
			"name":"pPlane6",
			"rotation":[
				0.7071068286895752,
				0,
				0,
				0.7071068286895752
			],
			"scale":[
				0.009999999776482582,
				0.009999999776482582,
				0.009999999776482582
			]
		}
	],
	"materials":[
		{
			"doubleSided":true,
			"name":"Pelo",
			"pbrMetallicRoughness":{
				"metallicFactor":0,
				"roughnessFactor":0.5527864098548889
			}
		},
		{
			"doubleSided":true,
			"name":"Aretes",
			"pbrMetallicRoughness":{
				"metallicFactor":0,
				"roughnessFactor":0.5527864098548889
			}
		},
		{
			"doubleSided":true,
			"name":"openPBR_shader1",
			"pbrMetallicRoughness":{
				"metallicFactor":0,
				"roughnessFactor":0.5527864098548889
			}
		},
		{
			"doubleSided":true,
			"name":"Ojos",
			"pbrMetallicRoughness":{
				"metallicFactor":0,
				"roughnessFactor":0.5527864098548889
			}
		},
		{
			"doubleSided":true,
			"name":"Default_Material",
			"pbrMetallicRoughness":{
				"baseColorFactor":[
					0.5,
					0.5,
					0.5,
					1
				],
				"metallicFactor":0,
				"roughnessFactor":0.5527864098548889
			}
		},
		{
			"doubleSided":true,
			"name":"cinturon",
			"pbrMetallicRoughness":{
				"metallicFactor":0,
				"roughnessFactor":0.5527864098548889
			}
		},
		{
			"doubleSided":true,
			"name":"Corona",
			"pbrMetallicRoughness":{
				"metallicFactor":0,
				"roughnessFactor":0.5527864098548889
			}
		},
		{
			"doubleSided":true,
			"name":"Jollas",
			"pbrMetallicRoughness":{
				"metallicFactor":0,
				"roughnessFactor":0.5527864098548889
			}
		},
		{
			"doubleSided":true,
			"name":"Ropa",
			"pbrMetallicRoughness":{
				"metallicFactor":0,
				"roughnessFactor":0.5527864098548889
			}
		},
		{
			"doubleSided":true,
			"name":"Piel",
			"pbrMetallicRoughness":{
				"metallicFactor":0,
				"roughnessFactor":0.5527864098548889
			}
		},
		{
			"doubleSided":true,
			"name":"aiStandardSurface1",
			"pbrMetallicRoughness":{
				"metallicFactor":0,
				"roughnessFactor":0.5527864098548889
			}
		}
	],
	"meshes":[
		{
			"name":"Mesh",
			"primitives":[
				{
					"attributes":{
						"POSITION":0,
						"NORMAL":1,
						"TEXCOORD_0":2,
						"COLOR_0":3,
						"COLOR_1":4,
						"COLOR_2":5
					},
					"indices":6,
					"material":0
				},
				{
					"attributes":{
						"POSITION":7,
						"NORMAL":8,
						"TEXCOORD_0":9,
						"COLOR_0":10,
						"COLOR_1":11,
						"COLOR_2":12
					},
					"indices":13,
					"material":1
				},
				{
					"attributes":{
						"POSITION":14,
						"NORMAL":15,
						"TEXCOORD_0":16,
						"COLOR_0":17,
						"COLOR_1":18,
						"COLOR_2":19
					},
					"indices":20,
					"material":2
				},
				{
					"attributes":{
						"POSITION":21,
						"NORMAL":22,
						"TEXCOORD_0":23,
						"COLOR_0":24,
						"COLOR_1":25,
						"COLOR_2":26
					},
					"indices":27,
					"material":3
				},
				{
					"attributes":{
						"POSITION":28,
						"NORMAL":29,
						"TEXCOORD_0":30,
						"COLOR_0":31,
						"COLOR_1":32,
						"COLOR_2":33
					},
					"indices":34,
					"material":4
				},
				{
					"attributes":{
						"POSITION":35,
						"NORMAL":36,
						"TEXCOORD_0":37,
						"COLOR_0":38,
						"COLOR_1":39,
						"COLOR_2":40
					},
					"indices":41,
					"material":5
				},
				{
					"attributes":{
						"POSITION":42,
						"NORMAL":43,
						"TEXCOORD_0":44,
						"COLOR_0":45,
						"COLOR_1":46,
						"COLOR_2":47
					},
					"indices":48,
					"material":6
				},
				{
					"attributes":{
						"POSITION":49,
						"NORMAL":50,
						"TEXCOORD_0":51,
						"COLOR_0":52,
						"COLOR_1":53,
						"COLOR_2":54
					},
					"indices":55,
					"material":7
				},
				{
					"attributes":{
						"POSITION":56,
						"NORMAL":57,
						"TEXCOORD_0":58,
						"COLOR_0":59,
						"COLOR_1":60,
						"COLOR_2":61
					},
					"indices":62,
					"material":8
				},
				{
					"attributes":{
						"POSITION":63,
						"NORMAL":64,
						"TEXCOORD_0":65,
						"COLOR_0":66,
						"COLOR_1":67,
						"COLOR_2":68
					},
					"indices":69,
					"material":9
				},
				{
					"attributes":{
						"POSITION":70,
						"NORMAL":71,
						"TEXCOORD_0":72,
						"COLOR_0":73,
						"COLOR_1":74,
						"COLOR_2":75
					},
					"indices":76,
					"material":10
				}
			]
		}
	],
	"accessors":[
		{
			"bufferView":0,
			"componentType":5126,
			"count":1010,
			"max":[
				1.7978485822677612,
				1.3423863649368286,
				-14.001668930053711
			],
			"min":[
				-1.9291244745254517,
				-1.8361514806747437,
				-18.22780990600586
			],
			"type":"VEC3"
		},
		{
			"bufferView":1,
			"componentType":5126,
			"count":1010,
			"type":"VEC3"
		},
		{
			"bufferView":2,
			"componentType":5126,
			"count":1010,
			"type":"VEC2"
		},
		{
			"bufferView":3,
			"componentType":5121,
			"count":1010,
			"normalized":true,
			"type":"VEC4"
		},
		{
			"bufferView":4,
			"componentType":5123,
			"count":1010,
			"normalized":true,
			"type":"VEC4"
		},
		{
			"bufferView":5,
			"componentType":5123,
			"count":1010,
			"normalized":true,
			"type":"VEC4"
		},
		{
			"bufferView":6,
			"componentType":5123,
			"count":4476,
			"type":"SCALAR"
		},
		{
			"bufferView":7,
			"componentType":5126,
			"count":2200,
			"max":[
				1.055501937866211,
				0.7260875701904297,
				-15.81390380859375
			],
			"min":[
				-0.8517086505889893,
				-0.2238280028104782,
				-16.79230499267578
			],
			"type":"VEC3"
		},
		{
			"bufferView":8,
			"componentType":5126,
			"count":2200,
			"type":"VEC3"
		},
		{
			"bufferView":9,
			"componentType":5126,
			"count":2200,
			"type":"VEC2"
		},
		{
			"bufferView":10,
			"componentType":5121,
			"count":2200,
			"normalized":true,
			"type":"VEC4"
		},
		{
			"bufferView":11,
			"componentType":5123,
			"count":2200,
			"normalized":true,
			"type":"VEC4"
		},
		{
			"bufferView":12,
			"componentType":5123,
			"count":2200,
			"normalized":true,
			"type":"VEC4"
		},
		{
			"bufferView":13,
			"componentType":5123,
			"count":11520,
			"type":"SCALAR"
		},
		{
			"bufferView":14,
			"componentType":5126,
			"count":546,
			"max":[
				0.7290666699409485,
				1.372141718864441,
				-16.612346649169922
			],
			"min":[
				0.018523667007684708,
				1.206233263015747,
				-16.727252960205078
			],
			"type":"VEC3"
		},
		{
			"bufferView":15,
			"componentType":5126,
			"count":546,
			"type":"VEC3"
		},
		{
			"bufferView":16,
			"componentType":5126,
			"count":546,
			"type":"VEC2"
		},
		{
			"bufferView":17,
			"componentType":5121,
			"count":546,
			"normalized":true,
			"type":"VEC4"
		},
		{
			"bufferView":18,
			"componentType":5123,
			"count":546,
			"normalized":true,
			"type":"VEC4"
		},
		{
			"bufferView":19,
			"componentType":5123,
			"count":546,
			"normalized":true,
			"type":"VEC4"
		},
		{
			"bufferView":20,
			"componentType":5123,
			"count":2640,
			"type":"SCALAR"
		},
		{
			"bufferView":21,
			"componentType":5126,
			"count":402,
			"max":[
				0.855462372303009,
				1.1955958604812622,
				-16.589569091796875
			],
			"min":[
				-0.2861761152744293,
				0.6670185327529907,
				-17.176300048828125
			],
			"type":"VEC3"
		},
		{
			"bufferView":22,
			"componentType":5126,
			"count":402,
			"type":"VEC3"
		},
		{
			"bufferView":23,
			"componentType":5126,
			"count":402,
			"type":"VEC2"
		},
		{
			"bufferView":24,
			"componentType":5121,
			"count":402,
			"normalized":true,
			"type":"VEC4"
		},
		{
			"bufferView":25,
			"componentType":5123,
			"count":402,
			"normalized":true,
			"type":"VEC4"
		},
		{
			"bufferView":26,
			"componentType":5123,
			"count":402,
			"normalized":true,
			"type":"VEC4"
		},
		{
			"bufferView":27,
			"componentType":5123,
			"count":2280,
			"type":"SCALAR"
		},
		{
			"bufferView":28,
			"componentType":5126,
			"count":1576,
			"max":[
				0.8688243627548218,
				1.2465019226074219,
				-16.098352432250977
			],
			"min":[
				-0.32272225618362427,
				0.46857595443725586,
				-17.1908016204834
			],
			"type":"VEC3"
		},
		{
			"bufferView":29,
			"componentType":5126,
			"count":1576,
			"type":"VEC3"
		},
		{
			"bufferView":30,
			"componentType":5126,
			"count":1576,
			"type":"VEC2"
		},
		{
			"bufferView":31,
			"componentType":5121,
			"count":1576,
			"normalized":true,
			"type":"VEC4"
		},
		{
			"bufferView":32,
			"componentType":5123,
			"count":1576,
			"normalized":true,
			"type":"VEC4"
		},
		{
			"bufferView":33,
			"componentType":5123,
			"count":1576,
			"normalized":true,
			"type":"VEC4"
		},
		{
			"bufferView":34,
			"componentType":5123,
			"count":5724,
			"type":"SCALAR"
		},
		{
			"bufferView":35,
			"componentType":5126,
			"count":525,
			"max":[
				1.6182668209075928,
				2.010468006134033,
				-8.144807815551758
			],
			"min":[
				-1.6326197385787964,
				-1.0949047803878784,
				-11.512863159179688
			],
			"type":"VEC3"
		},
		{
			"bufferView":36,
			"componentType":5126,
			"count":525,
			"type":"VEC3"
		},
		{
			"bufferView":37,
			"componentType":5126,
			"count":525,
			"type":"VEC2"
		},
		{
			"bufferView":38,
			"componentType":5121,
			"count":525,
			"normalized":true,
			"type":"VEC4"
		},
		{
			"bufferView":39,
			"componentType":5123,
			"count":525,
			"normalized":true,
			"type":"VEC4"
		},
		{
			"bufferView":40,
			"componentType":5123,
			"count":525,
			"normalized":true,
			"type":"VEC4"
		},
		{
			"bufferView":41,
			"componentType":5123,
			"count":2280,
			"type":"SCALAR"
		},
		{
			"bufferView":42,
			"componentType":5126,
			"count":2627,
			"max":[
				1.03524911403656,
				1.3790135383605957,
				-17.1851806640625
			],
			"min":[
				-0.7309677004814148,
				-0.6799508929252625,
				-18.933143615722656
			],
			"type":"VEC3"
		},
		{
			"bufferView":43,
			"componentType":5126,
			"count":2627,
			"type":"VEC3"
		},
		{
			"bufferView":44,
			"componentType":5126,
			"count":2627,
			"type":"VEC2"
		},
		{
			"bufferView":45,
			"componentType":5121,
			"count":2627,
			"normalized":true,
			"type":"VEC4"
		},
		{
			"bufferView":46,
			"componentType":5123,
			"count":2627,
			"normalized":true,
			"type":"VEC4"
		},
		{
			"bufferView":47,
			"componentType":5123,
			"count":2627,
			"normalized":true,
			"type":"VEC4"
		},
		{
			"bufferView":48,
			"componentType":5123,
			"count":6324,
			"type":"SCALAR"
		},
		{
			"bufferView":49,
			"componentType":5126,
			"count":2900,
			"max":[
				2.5423266887664795,
				2.308661937713623,
				-12.571920394897461
			],
			"min":[
				-2.5291848182678223,
				0.3772517740726471,
				-14.294429779052734
			],
			"type":"VEC3"
		},
		{
			"bufferView":50,
			"componentType":5126,
			"count":2900,
			"type":"VEC3"
		},
		{
			"bufferView":51,
			"componentType":5126,
			"count":2900,
			"type":"VEC2"
		},
		{
			"bufferView":52,
			"componentType":5121,
			"count":2900,
			"normalized":true,
			"type":"VEC4"
		},
		{
			"bufferView":53,
			"componentType":5123,
			"count":2900,
			"normalized":true,
			"type":"VEC4"
		},
		{
			"bufferView":54,
			"componentType":5123,
			"count":2900,
			"normalized":true,
			"type":"VEC4"
		},
		{
			"bufferView":55,
			"componentType":5123,
			"count":12672,
			"type":"SCALAR"
		},
		{
			"bufferView":56,
			"componentType":5126,
			"count":2736,
			"max":[
				2.8780558109283447,
				1.707622766494751,
				-4.752067565917969
			],
			"min":[
				-2.6864326000213623,
				-1.6364692449569702,
				-15.587563514709473
			],
			"type":"VEC3"
		},
		{
			"bufferView":57,
			"componentType":5126,
			"count":2736,
			"type":"VEC3"
		},
		{
			"bufferView":58,
			"componentType":5126,
			"count":2736,
			"type":"VEC2"
		},
		{
			"bufferView":59,
			"componentType":5121,
			"count":2736,
			"normalized":true,
			"type":"VEC4"
		},
		{
			"bufferView":60,
			"componentType":5123,
			"count":2736,
			"normalized":true,
			"type":"VEC4"
		},
		{
			"bufferView":61,
			"componentType":5123,
			"count":2736,
			"normalized":true,
			"type":"VEC4"
		},
		{
			"bufferView":62,
			"componentType":5123,
			"count":14016,
			"type":"SCALAR"
		},
		{
			"bufferView":63,
			"componentType":5126,
			"count":18418,
			"max":[
				2.9520349502563477,
				2.309746026992798,
				0.025595370680093765
			],
			"min":[
				-2.631570816040039,
				-1.5136240720748901,
				-18.023536682128906
			],
			"type":"VEC3"
		},
		{
			"bufferView":64,
			"componentType":5126,
			"count":18418,
			"type":"VEC3"
		},
		{
			"bufferView":65,
			"componentType":5126,
			"count":18418,
			"type":"VEC2"
		},
		{
			"bufferView":66,
			"componentType":5121,
			"count":18418,
			"normalized":true,
			"type":"VEC4"
		},
		{
			"bufferView":67,
			"componentType":5123,
			"count":18418,
			"normalized":true,
			"type":"VEC4"
		},
		{
			"bufferView":68,
			"componentType":5123,
			"count":18418,
			"normalized":true,
			"type":"VEC4"
		},
		{
			"bufferView":69,
			"componentType":5123,
			"count":102324,
			"type":"SCALAR"
		},
		{
			"bufferView":70,
			"componentType":5126,
			"count":406,
			"max":[
				0.8738104104995728,
				1.219241976737976,
				-16.580469131469727
			],
			"min":[
				-0.3013581335544586,
				0.7216309309005737,
				-17.1908016204834
			],
			"type":"VEC3"
		},
		{
			"bufferView":71,
			"componentType":5126,
			"count":406,
			"type":"VEC3"
		},
		{
			"bufferView":72,
			"componentType":5126,
			"count":406,
			"type":"VEC2"
		},
		{
			"bufferView":73,
			"componentType":5121,
			"count":406,
			"normalized":true,
			"type":"VEC4"
		},
		{
			"bufferView":74,
			"componentType":5123,
			"count":406,
			"normalized":true,
			"type":"VEC4"
		},
		{
			"bufferView":75,
			"componentType":5123,
			"count":406,
			"normalized":true,
			"type":"VEC4"
		},
		{
			"bufferView":76,
			"componentType":5123,
			"count":2292,
			"type":"SCALAR"
		}
	],
	"bufferViews":[
		{
			"buffer":0,
			"byteLength":12120,
			"byteOffset":0,
			"target":34962
		},
		{
			"buffer":0,
			"byteLength":12120,
			"byteOffset":12120,
			"target":34962
		},
		{
			"buffer":0,
			"byteLength":8080,
			"byteOffset":24240,
			"target":34962
		},
		{
			"buffer":0,
			"byteLength":4040,
			"byteOffset":32320,
			"target":34962
		},
		{
			"buffer":0,
			"byteLength":8080,
			"byteOffset":36360,
			"target":34962
		},
		{
			"buffer":0,
			"byteLength":8080,
			"byteOffset":44440,
			"target":34962
		},
		{
			"buffer":0,
			"byteLength":8952,
			"byteOffset":52520,
			"target":34963
		},
		{
			"buffer":0,
			"byteLength":26400,
			"byteOffset":61472,
			"target":34962
		},
		{
			"buffer":0,
			"byteLength":26400,
			"byteOffset":87872,
			"target":34962
		},
		{
			"buffer":0,
			"byteLength":17600,
			"byteOffset":114272,
			"target":34962
		},
		{
			"buffer":0,
			"byteLength":8800,
			"byteOffset":131872,
			"target":34962
		},
		{
			"buffer":0,
			"byteLength":17600,
			"byteOffset":140672,
			"target":34962
		},
		{
			"buffer":0,
			"byteLength":17600,
			"byteOffset":158272,
			"target":34962
		},
		{
			"buffer":0,
			"byteLength":23040,
			"byteOffset":175872,
			"target":34963
		},
		{
			"buffer":0,
			"byteLength":6552,
			"byteOffset":198912,
			"target":34962
		},
		{
			"buffer":0,
			"byteLength":6552,
			"byteOffset":205464,
			"target":34962
		},
		{
			"buffer":0,
			"byteLength":4368,
			"byteOffset":212016,
			"target":34962
		},
		{
			"buffer":0,
			"byteLength":2184,
			"byteOffset":216384,
			"target":34962
		},
		{
			"buffer":0,
			"byteLength":4368,
			"byteOffset":218568,
			"target":34962
		},
		{
			"buffer":0,
			"byteLength":4368,
			"byteOffset":222936,
			"target":34962
		},
		{
			"buffer":0,
			"byteLength":5280,
			"byteOffset":227304,
			"target":34963
		},
		{
			"buffer":0,
			"byteLength":4824,
			"byteOffset":232584,
			"target":34962
		},
		{
			"buffer":0,
			"byteLength":4824,
			"byteOffset":237408,
			"target":34962
		},
		{
			"buffer":0,
			"byteLength":3216,
			"byteOffset":242232,
			"target":34962
		},
		{
			"buffer":0,
			"byteLength":1608,
			"byteOffset":245448,
			"target":34962
		},
		{
			"buffer":0,
			"byteLength":3216,
			"byteOffset":247056,
			"target":34962
		},
		{
			"buffer":0,
			"byteLength":3216,
			"byteOffset":250272,
			"target":34962
		},
		{
			"buffer":0,
			"byteLength":4560,
			"byteOffset":253488,
			"target":34963
		},
		{
			"buffer":0,
			"byteLength":18912,
			"byteOffset":258048,
			"target":34962
		},
		{
			"buffer":0,
			"byteLength":18912,
			"byteOffset":276960,
			"target":34962
		},
		{
			"buffer":0,
			"byteLength":12608,
			"byteOffset":295872,
			"target":34962
		},
		{
			"buffer":0,
			"byteLength":6304,
			"byteOffset":308480,
			"target":34962
		},
		{
			"buffer":0,
			"byteLength":12608,
			"byteOffset":314784,
			"target":34962
		},
		{
			"buffer":0,
			"byteLength":12608,
			"byteOffset":327392,
			"target":34962
		},
		{
			"buffer":0,
			"byteLength":11448,
			"byteOffset":340000,
			"target":34963
		},
		{
			"buffer":0,
			"byteLength":6300,
			"byteOffset":351448,
			"target":34962
		},
		{
			"buffer":0,
			"byteLength":6300,
			"byteOffset":357748,
			"target":34962
		},
		{
			"buffer":0,
			"byteLength":4200,
			"byteOffset":364048,
			"target":34962
		},
		{
			"buffer":0,
			"byteLength":2100,
			"byteOffset":368248,
			"target":34962
		},
		{
			"buffer":0,
			"byteLength":4200,
			"byteOffset":370348,
			"target":34962
		},
		{
			"buffer":0,
			"byteLength":4200,
			"byteOffset":374548,
			"target":34962
		},
		{
			"buffer":0,
			"byteLength":4560,
			"byteOffset":378748,
			"target":34963
		},
		{
			"buffer":0,
			"byteLength":31524,
			"byteOffset":383308,
			"target":34962
		},
		{
			"buffer":0,
			"byteLength":31524,
			"byteOffset":414832,
			"target":34962
		},
		{
			"buffer":0,
			"byteLength":21016,
			"byteOffset":446356,
			"target":34962
		},
		{
			"buffer":0,
			"byteLength":10508,
			"byteOffset":467372,
			"target":34962
		},
		{
			"buffer":0,
			"byteLength":21016,
			"byteOffset":477880,
			"target":34962
		},
		{
			"buffer":0,
			"byteLength":21016,
			"byteOffset":498896,
			"target":34962
		},
		{
			"buffer":0,
			"byteLength":12648,
			"byteOffset":519912,
			"target":34963
		},
		{
			"buffer":0,
			"byteLength":34800,
			"byteOffset":532560,
			"target":34962
		},
		{
			"buffer":0,
			"byteLength":34800,
			"byteOffset":567360,
			"target":34962
		},
		{
			"buffer":0,
			"byteLength":23200,
			"byteOffset":602160,
			"target":34962
		},
		{
			"buffer":0,
			"byteLength":11600,
			"byteOffset":625360,
			"target":34962
		},
		{
			"buffer":0,
			"byteLength":23200,
			"byteOffset":636960,
			"target":34962
		},
		{
			"buffer":0,
			"byteLength":23200,
			"byteOffset":660160,
			"target":34962
		},
		{
			"buffer":0,
			"byteLength":25344,
			"byteOffset":683360,
			"target":34963
		},
		{
			"buffer":0,
			"byteLength":32832,
			"byteOffset":708704,
			"target":34962
		},
		{
			"buffer":0,
			"byteLength":32832,
			"byteOffset":741536,
			"target":34962
		},
		{
			"buffer":0,
			"byteLength":21888,
			"byteOffset":774368,
			"target":34962
		},
		{
			"buffer":0,
			"byteLength":10944,
			"byteOffset":796256,
			"target":34962
		},
		{
			"buffer":0,
			"byteLength":21888,
			"byteOffset":807200,
			"target":34962
		},
		{
			"buffer":0,
			"byteLength":21888,
			"byteOffset":829088,
			"target":34962
		},
		{
			"buffer":0,
			"byteLength":28032,
			"byteOffset":850976,
			"target":34963
		},
		{
			"buffer":0,
			"byteLength":221016,
			"byteOffset":879008,
			"target":34962
		},
		{
			"buffer":0,
			"byteLength":221016,
			"byteOffset":1100024,
			"target":34962
		},
		{
			"buffer":0,
			"byteLength":147344,
			"byteOffset":1321040,
			"target":34962
		},
		{
			"buffer":0,
			"byteLength":73672,
			"byteOffset":1468384,
			"target":34962
		},
		{
			"buffer":0,
			"byteLength":147344,
			"byteOffset":1542056,
			"target":34962
		},
		{
			"buffer":0,
			"byteLength":147344,
			"byteOffset":1689400,
			"target":34962
		},
		{
			"buffer":0,
			"byteLength":204648,
			"byteOffset":1836744,
			"target":34963
		},
		{
			"buffer":0,
			"byteLength":4872,
			"byteOffset":2041392,
			"target":34962
		},
		{
			"buffer":0,
			"byteLength":4872,
			"byteOffset":2046264,
			"target":34962
		},
		{
			"buffer":0,
			"byteLength":3248,
			"byteOffset":2051136,
			"target":34962
		},
		{
			"buffer":0,
			"byteLength":1624,
			"byteOffset":2054384,
			"target":34962
		},
		{
			"buffer":0,
			"byteLength":3248,
			"byteOffset":2056008,
			"target":34962
		},
		{
			"buffer":0,
			"byteLength":3248,
			"byteOffset":2059256,
			"target":34962
		},
		{
			"buffer":0,
			"byteLength":4584,
			"byteOffset":2062504,
			"target":34963
		}
	],
	"buffers":[
		{
			"byteLength":2067088,
			"uri":"zipa.bin"
		}
	]
}
